PathFileType	4	(X/Y/Z)	s04c0201.trc
DataRate	CameraRate	NumFrames	NumMarkers	Units	OrigDataRate	OrigDataStartFrame	OrigNumFrames
200	200	4	51	mm	200	1000	2000
Frame#	Time	racr			lacr			c7			jug			rlel			rdr			llel			ldr			s2			lic			ric			lasi			rasi			rpsi			lpsi			rgt			lgt			rth1			rth2			rth3			rth4			rlfc			rmfc			rsh1			rsh2			rsh3			rsh4			rlmal			rmmal			rcal			rtoe			rmt5			lth1			lth2			lth4			lth3			llfc			lmfc			lsh1			lsh2			lsh3			lsh4			llmal			lmmal			lcal			ltoe			lmt1			lmt5			SBIKE			LBIKE			RBIKE			
		X1	Y1	Z1	X2	Y2	Z2	X3	Y3	Z3	X4	Y4	Z4	X5	Y5	Z5	X6	Y6	Z6	X7	Y7	Z7	X8	Y8	Z8	X9	Y9	Z9	X10	Y10	Z10	X11	Y11	Z11	X12	Y12	Z12	X13	Y13	Z13	X14	Y14	Z14	X15	Y15	Z15	X16	Y16	Z16	X17	Y17	Z17	X18	Y18	Z18	X19	Y19	Z19	X20	Y20	Z20	X21	Y21	Z21	X22	Y22	Z22	X23	Y23	Z23	X24	Y24	Z24	X25	Y25	Z25	X26	Y26	Z26	X27	Y27	Z27	X28	Y28	Z28	X29	Y29	Z29	X30	Y30	Z30	X31	Y31	Z31	X32	Y32	Z32	X33	Y33	Z33	X34	Y34	Z34	X35	Y35	Z35	X36	Y36	Z36	X37	Y37	Z37	X38	Y38	Z38	X39	Y39	Z39	X40	Y40	Z40	X41	Y41	Z41	X42	Y42	Z42	X43	Y43	Z43	X44	Y44	Z44	X45	Y45	Z45	X46	Y46	Z46	X47	Y47	Z47	X48	Y48	Z48	X49	Y49	Z49	X50	Y50	Z50	X51	Y51	Z51	
1000	5.0000	483.440405	1366.516539	-169.699099	483.944293	1369.805401	-446.259053	460.820422	1437.067458	-310.613103	432.003320	1281.219089	-315.017821	436.419733	1096.408250	2.225154	659.141592	942.536281	-115.054554	465.340230	1118.536250	-599.419841	673.215439	945.383336	-488.072213	-88.469141	1183.377713	-288.557885	51.117514	1208.623273	-455.997048	71.832105	1199.928563	-133.280326	96.191165	1172.760500	-410.563513	116.955229	1156.700583	-181.467288	-57.560152	1228.606035	-247.694893	-68.143536	1233.635189	-320.500615	28.396391	1142.604791	-115.121823	31.208350	1109.201136	-474.178675	140.736983	1019.797386	-103.159920	212.041184	967.281326	-108.173016	250.416597	891.261505	-104.695921	236.701390	988.723783	-125.014615	313.219182	759.418884	-116.685735	298.994940	739.699124	-230.624660	227.187177	661.652243	-91.774218	194.240599	580.942360	-111.054697	122.106016	534.142763	-122.410876	222.559115	564.351208	-132.985918	33.770151	406.784330	-131.517455	66.480588	401.831385	-213.777611	-33.469613	414.929639	-180.438123	198.802409	217.454416	-153.846123	126.653371	241.599801	-106.821991	100.698509	1044.456184	-481.210467	184.036519	1020.354488	-482.655412	202.669419	1051.386862	-476.071925	245.551276	956.071787	-479.618132	365.424596	850.874173	-455.276226	396.570244	833.492984	-344.539806	350.404878	731.220847	-477.053083	347.657242	646.519402	-455.413062	304.023714	569.477546	-453.879996	374.388378	642.783971	-426.556634	256.113370	433.715307	-449.918256	253.580567	434.255669	-358.886246	179.843728	397.784060	-409.885429	477.012111	436.218985	-418.029949	0.000000	0.000000	-0.000000	415.156709	385.738471	-478.921845	-186.591831	935.422096	-285.493172	-18.228316	79.213255	-484.701571	-18.242536	79.358237	-83.884600	
1001	5.0050	482.590644	1366.842512	-169.510513	482.877833	1369.881965	-446.145992	460.155500	1437.126108	-310.506982	431.989335	1281.251453	-314.600053	435.432640	1096.849920	2.171136	658.179105	942.229306	-114.644840	464.617126	1118.794510	-599.302593	672.690550	945.609989	-487.621051	-88.318756	1180.722694	-288.677481	51.463287	1206.000588	-456.562089	72.062288	1198.462145	-133.649685	96.979616	1171.125171	-410.791434	117.086541	1155.341785	-182.025195	-58.471873	1226.466393	-247.657390	-68.574326	1230.843459	-320.813979	29.605285	1141.180810	-114.874186	31.712754	1103.772034	-473.560322	143.344525	1020.276912	-103.837668	215.712951	968.882937	-108.979317	255.311080	893.592811	-105.514578	240.182888	991.338751	-124.840411	319.254039	762.797947	-117.247783	304.250069	742.524613	-231.180965	231.694682	666.915473	-92.340003	196.582592	587.208158	-111.439662	123.218898	542.213168	-122.514904	224.443208	569.973032	-133.472051	32.011275	417.385788	-131.567012	64.697000	411.752066	-213.879747	-35.301479	426.275981	-180.223086	194.798818	226.435657	-153.917175	122.936302	251.376703	-106.666875	101.428179	1038.457780	-481.237542	184.477964	1013.098220	-482.436449	203.487515	1043.794597	-475.950060	244.921448	947.913258	-478.976366	362.039905	841.695034	-454.517222	392.898846	824.153836	-343.630842	348.018624	721.031630	-476.077127	346.621900	636.109532	-455.109043	304.237741	558.456371	-453.851901	373.636876	632.595627	-426.393866	258.888926	421.260743	-449.994943	256.066083	422.273703	-359.027533	183.184331	384.236205	-410.191180	479.874302	426.887419	-417.631352	0.000000	0.000000	-0.000000	418.739211	375.550690	-478.677015	-186.551122	935.454551	-285.100910	-18.228713	79.239921	-484.671958	-18.227462	79.320697	-83.826990	
1002	5.0100	481.855190	1367.161060	-169.320373	481.681692	1369.905898	-445.978832	459.552203	1437.218354	-310.482184	431.917821	1281.253099	-314.104997	434.723081	1097.207121	2.117320	657.660626	942.033915	-114.016648	463.925344	1118.936381	-599.097032	672.266209	945.778976	-487.196705	-88.184928	1177.919943	-288.650957	51.866842	1203.308064	-457.174490	72.223532	1197.146124	-133.898103	97.734727	1169.215718	-411.154638	117.393412	1154.476637	-182.537032	-59.306513	1224.436030	-247.627168	-68.986031	1227.915207	-321.038408	30.906281	1139.488967	-114.648116	32.080577	1098.728526	-473.036559	145.823131	1020.538019	-104.258946	219.021741	970.314556	-109.425225	259.773193	895.739216	-105.590020	242.605902	992.816312	-125.722751	324.983783	766.084153	-117.668014	309.184385	745.268142	-231.546704	236.220283	672.138494	-93.075978	198.761427	593.347775	-111.826160	124.408630	550.195178	-122.708130	226.173514	575.615808	-133.919865	30.541296	428.039301	-131.783816	62.966161	421.706493	-214.116567	-36.892830	437.610518	-180.155705	191.434194	236.007234	-154.012169	119.847839	261.327027	-106.570357	102.010581	1032.783129	-481.235183	184.648210	1006.113353	-482.196109	204.128123	1036.511593	-475.796131	244.024195	939.933115	-478.442573	358.167297	832.824560	-454.183322	389.050827	814.855706	-342.920644	345.254567	710.753994	-475.219930	345.195189	625.884248	-454.928819	303.970275	547.644786	-453.796450	372.421551	622.584010	-426.390719	261.249083	409.111757	-450.281842	258.506268	409.945122	-359.122316	185.987235	371.297421	-410.737468	482.273597	417.042308	-417.176832	0.000000	0.000000	-0.000000	421.820685	365.133654	-478.321587	-186.561724	935.408740	-284.936948	-18.224237	79.280650	-484.638734	-18.233219	79.287870	-83.803054	
1003	5.0150	481.065814	1367.472150	-169.223595	480.450663	1369.803807	-445.704202	458.868125	1437.278966	-310.430977	431.784019	1281.354650	-313.707817	434.240371	1097.371824	2.017809	657.488346	941.922021	-113.569004	463.318446	1118.974984	-598.743098	671.879074	945.825415	-486.711403	-88.004734	1175.361282	-288.813457	52.382824	1200.768071	-457.930013	72.369362	1195.889897	-134.268511	98.575348	1167.387198	-411.702927	117.780823	1153.711264	-183.110352	-60.061746	1221.879400	-247.570812	-69.426291	1224.931027	-321.310577	32.139328	1137.680229	-114.501732	32.430942	1094.253431	-472.490227	148.131306	1020.644509	-104.010301	221.915228	971.537932	-109.467875	264.010841	897.699630	-105.342771	245.597752	994.438483	-126.650066	330.533473	769.179279	-117.924709	313.904654	748.159273	-231.832340	240.807868	677.439913	-93.990325	201.108622	599.650992	-112.155231	125.775531	558.127210	-122.914520	227.981686	581.410670	-134.350195	29.570097	438.623324	-132.072512	61.642730	431.547378	-214.454165	-38.241170	448.826323	-180.332762	188.726138	246.015273	-154.159344	117.378426	271.833045	-106.507398	102.275479	1027.614383	-481.247811	184.433235	999.401499	-481.997156	204.430454	1029.454078	-475.630992	242.550464	932.176490	-477.810958	354.390942	823.701102	-453.853446	384.597792	805.131016	-342.144619	342.280746	700.652016	-475.029281	343.433539	615.777328	-454.913865	303.266063	537.078713	-453.974802	370.810269	612.808688	-426.496647	263.473698	397.198871	-450.623070	260.157131	397.626022	-359.502406	188.160695	358.911610	-411.573542	484.306271	406.711393	-416.478946	0.000000	0.000000	-0.000000	424.362239	354.701105	-478.087343	-186.538682	935.588826	-285.165943	-18.203075	79.267339	-484.616552	-18.232462	79.300897	-83.800500	
